<svg xmlns="http://www.w3.org/2000/svg" viewBox="0 0 128 128"><defs><style>.cls-1{isolation:isolate;}.cls-2{mix-blend-mode:multiply;}.cls-3{fill:#cc8333;}.cls-4{fill:#efb14d;}.cls-5{fill:#fff;}.cls-6{fill:#eae0b5;}.cls-7{fill:#9b6f43;}</style></defs><title>beaver</title><g class="cls-1"><g id="icons" class="cls-2"><circle class="cls-3" cx="37" cy="35" r="8"/><circle class="cls-3" cx="91" cy="35" r="8"/><path class="cls-4" d="M64,23C35,23,25,63,25,77s7,28,39,28,39-14,39-28S93,23,64,23Z"/><rect class="cls-5" x="55" y="76" width="8" height="14" rx="2" ry="2"/><rect class="cls-5" x="65" y="76" width="8" height="14" rx="2" ry="2"/><circle cx="77" cy="51" r="4"/><circle cx="51" cy="51" r="4"/><path class="cls-6" d="M73,64a10,10,0,0,0-9,5.66,10,10,0,1,0,0,8.67A10,10,0,1,0,73,64Z"/><path class="cls-7" d="M72,65.33C72,63.12,68.42,62,64,62s-8,1.12-8,3.33C56,66.79,60,70,64,70S72,66.79,72,65.33Z"/><path class="cls-3" d="M52.14,73.43a30,30,0,0,0-3.49-1.12c-1.2-.31-2.42-.58-3.65-.78A40.47,40.47,0,0,0,37.53,71h0a.5.5,0,0,1-.05-1,41.73,41.73,0,0,1,7.72,0c1.29.12,2.57.31,3.84.56a31.5,31.5,0,0,1,3.82,1,1,1,0,0,1-.62,1.9l-.06,0Z"/><path class="cls-3" d="M51.09,78.41a24,24,0,0,0-2.49-1A27.25,27.25,0,0,0,46,76.6a19.87,19.87,0,0,0-5.42-.6h0a.5.5,0,0,1-.08-1,21.1,21.1,0,0,1,5.8.12,28.87,28.87,0,0,1,2.85.58,25.62,25.62,0,0,1,2.81.89,1,1,0,0,1-.72,1.87l-.08,0Z"/><path class="cls-3" d="M75.14,71.57a31.5,31.5,0,0,1,3.82-1c1.27-.24,2.55-.44,3.84-.56a41.73,41.73,0,0,1,7.72,0,.5.5,0,0,1-.05,1h0a40.47,40.47,0,0,0-7.47.54c-1.23.2-2.45.46-3.65.78a30,30,0,0,0-3.49,1.12h0a1,1,0,0,1-.75-1.86Z"/><path class="cls-3" d="M76.09,76.59a25.62,25.62,0,0,1,2.81-.89,28.87,28.87,0,0,1,2.85-.58,21.1,21.1,0,0,1,5.8-.12.5.5,0,0,1-.08,1h0a19.87,19.87,0,0,0-5.42.6,27.25,27.25,0,0,0-2.63.78,24,24,0,0,0-2.49,1h0a1,1,0,0,1-.88-1.8Z"/></g></g></svg>